HIERARCHY
ROOT Hips
{
  OFFSET -35.4901 99.2528 17.4586
  CHANNELS 6 Xposition Yposition Zposition Zrotation Xrotation Yrotation
  JOINT LeftUpLeg
  {
    OFFSET 8.64259 1.95398 -2.38835
    CHANNELS 3 Zrotation Xrotation Yrotation
    JOINT LeftLeg
    {
      OFFSET 43.7702 0 0
      CHANNELS 3 Zrotation Xrotation Yrotation
      JOINT LeftFoot
      {
        OFFSET 40.6238 0 0
        CHANNELS 3 Zrotation Xrotation Yrotation
        JOINT LeftToeBase
        {
          OFFSET 12.7242 0 0
          CHANNELS 3 Zrotation Xrotation Yrotation
          End Site
          {
            OFFSET 0 0 0
          }
        }
      }
    }
  }
  JOINT RightUpLeg
  {
    OFFSET -8.2249 1.95398 -2.59336
    CHANNELS 3 Zrotation Xrotation Yrotation
    JOINT RightLeg
    {
      OFFSET 43.5653 0 0
      CHANNELS 3 Zrotation Xrotation Yrotation
      JOINT RightFoot
      {
        OFFSET 40.6238 0 0
        CHANNELS 3 Zrotation Xrotation Yrotation
        JOINT RightToeBase
        {
          OFFSET 12.7242 0 0
          CHANNELS 3 Zrotation Xrotation Yrotation
          End Site
          {
            OFFSET 0 0 0
          }
        }
      }
    }
  }
  JOINT Spine
  {
    OFFSET 0.165834 0.87714 6.61349
    CHANNELS 3 Zrotation Xrotation Yrotation
    JOINT Spine1
    {
      OFFSET 7.38963 1.71661e-005 0
      CHANNELS 3 Zrotation Xrotation Yrotation
      JOINT Spine2
      {
        OFFSET 11.9445 1.14441e-005 0
        CHANNELS 3 Zrotation Xrotation Yrotation
        JOINT Spine3
        {
          OFFSET 14.7254 4.19617e-005 0
          CHANNELS 3 Zrotation Xrotation Yrotation
          JOINT Spine4
          {
            OFFSET 10.9679 0 0
            CHANNELS 3 Zrotation Xrotation Yrotation
            JOINT RightShoulder
            {
              OFFSET 2.46616 -1.6653 3.69651
              CHANNELS 3 Zrotation Xrotation Yrotation
              JOINT RightArm
              {
                OFFSET 13.0012 0 0
                CHANNELS 3 Zrotation Xrotation Yrotation
                JOINT RightForeArm
                {
                  OFFSET 28.7848 1.52588e-005 0
                  CHANNELS 3 Zrotation Xrotation Yrotation
                  JOINT RightHand
                  {
                    OFFSET 26.5688 1.52588e-005 0
                    CHANNELS 3 Zrotation Xrotation Yrotation
                    End Site
                    {
                      OFFSET 0 0 0
                    }
                  }
                }
              }
            }
            JOINT LeftShoulder
            {
              OFFSET 2.38034 -1.29275 -3.7523
              CHANNELS 3 Zrotation Xrotation Yrotation
              JOINT LeftArm
              {
                OFFSET 16.3182 6.10351e-005 0
                CHANNELS 3 Zrotation Xrotation Yrotation
                JOINT LeftForeArm
                {
                  OFFSET 27.0901 0 0
                  CHANNELS 3 Zrotation Xrotation Yrotation
                  JOINT LeftHand
                  {
                    OFFSET 24.5451 1.52588e-005 0
                    CHANNELS 3 Zrotation Xrotation Yrotation
                    End Site
                    {
                      OFFSET 0 0 0
                    }
                  }
                }
              }
            }
            JOINT Neck
            {
              OFFSET 5.0226 -0.0266342 0
              CHANNELS 3 Zrotation Xrotation Yrotation
              JOINT Head
              {
                OFFSET 6.69364 2.86102e-005 0
                CHANNELS 3 Zrotation Xrotation Yrotation
                End Site
                {
                  OFFSET 0 0 0
                }
              }
            }
          }
        }
      }
    }
  }
}
MOTION
Frames:	10
Frame Time:	0.0416667
24.3482 95.4986 -43.9483 -130.259 -76.1823 -134.371 -177.187 16.3957 83.8568 -26.0486 -3.7004 -4.63844 65.3376 2.71175 -1.13386 5.1389 -2.28679 4.15666 167.229 -12.2493 76.652 -42.2031 -29.1052 -7.01544 65.839 -3.30317 -1.42917 43.4771 -2.10291 5.76304 1.41694 7.86025 -89.9202 11.1579 2.85735 -0.120178 -0.509957 2.84928 -0.24592 -23.0692 2.76125 0.744798 -3.05654 2.76125 0.744804 87.567 -30.0132 -111.539 37.2994 -6.22046 -11.0468 -2.39371 -31.7145 -21.7219 -24.203 0.108577 -9.80463 -80.4657 -56.1475 93.3959 -26.9936 5.81048 5.51442 3.43111 4.25875 -5.1934 -3.4825 -0.0761977 -5.84896 -4.93261 1.27923 6.03643 -6.30748 0.785643 -2.53033 
25.4547 95.6469 -36.5752 -131.97 -75.0331 -138.178 -178.448 12.7936 80.3106 -30.6611 -5.51698 -5.47822 71.4208 4.39821 0.184205 5.96172 -1.70938 3.50739 174.87 0.300263 75.8133 -64.4572 -26.7931 -8.05831 55.8552 1.09947 1.69142 29.1828 -0.647785 1.57767 1.15875 7.95236 -89.7059 10.9665 2.44306 0.352715 -0.702227 2.45622 0.244774 -23.2527 2.22407 1.07098 -3.2401 2.22407 1.07099 87.8836 -29.9455 -110.953 40.3735 -7.41505 -8.54528 1.39179 -30.7581 -16.167 -23.0918 -0.0522386 -8.90429 -80.7424 -55.8759 92.9913 -22.3545 7.06125 -6.13444 3.90794 5.10206 -7.31751 -1.66025 -0.104542 -6.67383 -6.29362 2.12005 7.65981 -5.4226 1.51687 -1.85355 
25.9319 96.1916 -30.857 -141.305 -76.6272 -146.822 -179.165 8.90127 79.4652 -31.0295 -3.5226 -4.6956 74.6491 5.18437 0.0741692 7.16475 -2.25625 4.10241 179.907 10.225 78.9865 -67.775 -19.1409 -6.93005 67.0496 -4.01523 -0.92053 28.1169 -0.937443 2.57395 0.701142 8.01637 -89.841 10.8423 1.46944 0.177013 -0.827856 1.47581 0.11215 -23.3689 1.34829 0.610533 -3.35624 1.3483 0.610534 88.0341 -30.7469 -110.307 40.3702 -7.4535 -4.82676 4.18044 -30.3488 -12.5689 -23.0713 -0.13142 -8.33946 -81.198 -53.9322 92.2328 -18.6355 3.95243 -16.3506 7.76038 8.00489 -15.6674 0.195455 -0.16285 -7.57829 -7.1774 3.24096 8.21186 -5.48115 2.5968 0.429488 
25.8521 96.9087 -25.9257 -163.494 -79.7323 -167.319 -179.53 5.41508 80.4179 -29.5893 1.65136 -2.78698 76.4741 5.68269 0.219724 7.86341 -3.10339 5.07046 -178.51 16.5879 83.4136 -52.9605 -14.2945 -7.07729 69.5913 -5.46344 -0.712915 26.3729 -0.104068 0.606844 0.25775 8.05961 -90.1911 10.7564 0.425174 -0.418814 -0.914518 0.406331 -0.43713 -23.45 0.531388 -0.27167 -3.43737 0.531387 -0.271676 88.5536 -30.7362 -109.305 39.9075 -5.46065 0.314336 3.35077 -30.1701 -13.0063 -22.5045 -0.140605 -8.36048 -82.2868 -51.006 90.4223 -18.2597 -0.359293 -25.4949 12.19 10.4993 -22.3659 1.6737 -0.241242 -8.57388 -7.12849 3.38684 8.16196 -4.59632 2.70533 1.87542 
25.8056 97.0949 -20.7937 162.025 -80.4307 158.416 -179.135 1.79955 81.1812 -28.1334 8.72676 -2.04748 78.5384 6.79708 1.00991 6.20725 -1.49554 3.26177 -177.625 18.3493 84.9473 -31.8149 -25.1803 -7.95496 64.7309 -3.72183 -1.1052 28.5444 -0.318825 0.888383 -0.190466 8.06554 -90.2632 10.7415 -0.500601 -0.477204 -0.929456 -0.521121 -0.454726 -23.4643 -0.334035 -0.605597 -3.45166 -0.334046 -0.605603 88.7808 -31.038 -108.74 40.0001 -4.67 3.92103 4.09728 -28.9383 -11.9376 -22.7291 -0.0510783 -8.65753 -83.0009 -48.3476 89.0999 -18.2952 -3.27008 -32.432 14.0217 10.6432 -24.9126 6.49774 -0.369146 -7.96086 -6.46845 3.30865 6.49427 -4.64706 2.69811 2.66163 
26.0425 96.5759 -14.8954 135.191 -77.3897 131.345 -177.777 -2.18377 82.8727 -28.3169 16.779 -2.25021 81.4591 8.79045 1.19155 7.06279 -1.76294 3.54386 179.912 15.8991 85.1216 -10.4584 -46.4737 -5.69671 61.9973 -0.881848 1.60298 33.5706 -0.153609 -0.309259 -0.550145 8.08964 -90.2672 10.6925 -1.21868 -0.419857 -0.977946 -1.23598 -0.365812 -23.5159 -1.03616 -0.766739 -3.50328 -1.03616 -0.766732 88.9729 -32.0824 -107.956 39.9059 -4.15785 6.00891 4.29177 -28.3402 -11.6376 -20.9351 0.0591374 -9.61125 -83.8966 -47.1106 87.5758 -19.9795 -3.85306 -35.0482 14.3159 9.33777 -26.6856 5.32381 -0.440326 -9.54474 -6.08539 2.65878 5.1872 -4.4102 2.13521 3.12922 
26.5036 95.9447 -8.08042 120.32 -71.9119 116.105 -176.307 -6.82991 85.4984 -28.3859 25.2234 -1.86276 83.834 11.302 1.2654 7.54528 -2.42443 4.30443 -179.512 15.8782 86.4895 -14.3556 -52.5634 -9.02735 61.4997 0.150705 2.72807 38.3968 -0.57071 0.14232 -0.911159 8.02643 -90.2305 10.8194 -1.92064 -0.280579 -0.850115 -1.93114 -0.195742 -23.395 -1.7475 -0.845007 -3.38232 -1.7475 -0.845006 89.1834 -33.3899 -107.066 40.2917 -3.70686 6.61544 4.31071 -28.5411 -11.1767 -22.4764 -0.0291974 -8.7374 -84.4392 -47.2494 86.7478 -21.8543 -1.62965 -32.4517 14.7959 11.1045 -26.7084 5.78893 -0.35962 -8.22075 -5.97394 2.13985 3.554 -5.1442 1.71896 3.63401 
27.5443 96.0527 -0.560266 112.022 -65.1302 108.746 -175.067 -11.241 89.2025 -29.02 31.4839 0.897515 83.0955 11.7737 1.32419 12.2295 -1.07203 2.62497 -177.972 14.5058 86.7628 -20.2056 -48.1348 -7.62996 56.6856 0.854659 5.96594 35.6874 1.2703 -5.15289 -1.00031 7.82016 -90.3497 11.2297 -2.15342 -0.483552 -0.439575 -2.17261 -0.388268 -22.9858 -1.90852 -1.10859 -2.9731 -1.90852 -1.10859 89.3279 -33.9197 -106.598 41.4382 -3.74741 6.79426 4.94431 -27.5923 -9.96891 -19.8426 0.113602 -10.1194 -82.8039 -48.1756 89.3857 -23.9048 6.27236 -28.1259 10.6778 13.2319 -18.7301 2.69877 -0.248913 -8.19114 -6.58235 0.868956 2.54745 -5.58208 0.561834 3.06598 
28.8101 96.9911 6.10252 106.787 -55.6147 106.478 -173.531 -10.6166 94.56 -37.9131 34.7199 7.24949 77.1445 8.71105 2.72577 23.1173 3.0798 -4.17275 178.636 10.0892 89.6619 -21.394 -39.8192 -5.28933 61.5232 -1.29186 3.21585 31.4053 -0.597529 1.31682 -0.904873 7.72131 -90.7843 11.4178 -2.16651 -1.34325 -0.251956 -2.22352 -1.24659 -22.791 -1.66273 -1.93227 -2.77831 -1.66272 -1.93228 89.5629 -32.1862 -106.788 42.1983 -4.2099 5.82698 4.84518 -27.2092 -10.671 -24.2388 -0.240385 -7.11332 -83.3884 -49.0847 88.5799 -28.4124 12.3197 -21.0007 3.38837 12.0385 -4.36924 -0.0705644 -0.127061 -6.18827 -6.53893 -0.938024 1.11935 -5.73549 -1.12001 2.75053 
29.6436 96.9978 10.8181 102.302 -42.069 103.531 -173.515 -1.83308 99.5422 -54.0187 29.7592 9.51224 69.3457 5.08312 1.27316 21.6053 3.65976 -4.92209 173.961 6.76558 90.6849 -22.7574 -30.5972 -2.15038 67.5024 -3.94414 0.299211 28.1601 -2.04849 5.48335 -0.726508 7.75109 -90.9184 11.3564 -1.87387 -1.64212 -0.31417 -1.9443 -1.55807 -22.847 -1.29383 -2.12927 -2.83435 -1.29383 -2.12926 89.6194 -33.131 -106.334 38.8151 -4.98684 4.16866 3.61789 -29.4914 -12.5644 -23.0848 -0.211554 -7.74116 -83.8402 -48.1159 87.7804 -30.9182 14.3781 -14.5762 -0.0890503 12.2247 0.399466 -2.65729 -0.0863026 -4.39924 -4.13553 -3.5672 -2.60811 -5.09899 -3.29724 1.23502 
